PathFileType	4	(X/Y/Z)	29_2_79_p0_0-480_filt_butterworth.trc
DataRate	CameraRate	NumFrames	NumMarkers	Units	OrigDataRate	OrigDataStartFrame	OrigNumFrames
53.0	53.0	6	27	m	53.0	420	480
Frame#	Time	RHip			RKnee			RAnkle			RBigToe			RSmallToe			RHeel			LHip			LKnee			LAnkle			LBigToe			LSmallToe			LHeel			Neck			Head			Nose			RShoulder			RElbow			RWrist			RThumb			RIndex			RPinky			LShoulder			LElbow			LWrist			LThumb			LIndex			LPinky			
		X1	Y1	Z1	X2	Y2	Z2	X3	Y3	Z3	X4	Y4	Z4	X5	Y5	Z5	X6	Y6	Z6	X7	Y7	Z7	X8	Y8	Z8	X9	Y9	Z9	X10	Y10	Z10	X11	Y11	Z11	X12	Y12	Z12	X13	Y13	Z13	X14	Y14	Z14	X15	Y15	Z15	X16	Y16	Z16	X17	Y17	Z17	X18	Y18	Z18	X19	Y19	Z19	X20	Y20	Z20	X21	Y21	Z21	X22	Y22	Z22	X23	Y23	Z23	X24	Y24	Z24	X25	Y25	Z25	X26	Y26	Z26	X27	Y27	Z27	
420	7.924528301886792	0.3540240538523062	0.6084633143398845	0.9381041227815768	0.32788560723881904	0.7085067991331687	1.3529656737221927	0.29028005616359054	0.8066079191027415	1.7408130677376983	0.2850596294956607	0.617328862803638	1.7695693563901314	0.3242044495126252	0.6486579712105258	1.7648996894270765	0.2727484317550327	0.8629953013586223	1.789953667281663	0.15689663404748608	0.5507412375275345	0.946932199966982	0.13429405665187677	0.6664208886122305	1.3389560038929742	0.10449295331172159	0.7723401027903314	1.7141768181919015	0.12569783376001054	0.6225377152283553	1.7564529358232857	0.07314828142623596	0.6494314737411825	1.7522839911380454	0.10567407379454005	0.8159982443092123	1.7506875814193394	0.24632494668262916	0.3885455545672222	0.4368130060305214	0.257661976549424	0.23877446344614506	0.23319228450203827	0.3231405886371384	0.22907319641400836	0.35233443965694017	0.4020904451262838	0.4421144599296459	0.4572927353723064	0.4057101989070086	0.45521255131267396	0.666096816679306	0.39718309143720987	0.21091445676310572	0.7634551707317999	0.4056290405765415	0.1004126792179669	0.8331149836800827	0.4206786776282661	0.11449270991433647	0.8442224423095968	0.42124981155638735	0.14078734036127014	0.8602384066622208	0.11161790909156026	0.4256088921612258	0.5093436597667468	0.10017694111399053	0.43639833497399094	0.7217255744246087	0.14572153083387474	0.2368472852042292	0.6319973900297334	0.16015138801514475	0.14934828456607943	0.5541847458570353	0.16707492393003515	0.1485235156633047	0.5567283080821076	0.1785240563534931	0.170357260024187	0.5895433059427038
421	7.943396226415095	0.3540204716979983	0.6085255452845051	0.9381041081993522	0.3282172899490864	0.7093447284998327	1.3532463119779403	0.29030525835219295	0.8066707718015347	1.7408054818878138	0.28587724162583245	0.6185119141864983	1.7692179796399912	0.3241732784911745	0.648435741894548	1.76483655475071	0.27272418745698157	0.864579473768834	1.7919816648161961	0.15747128096766558	0.5494899606356052	0.946830538232955	0.13460687776972	0.6661306315202421	1.3378418975766209	0.10449520252886228	0.7723914918082138	1.7142979639406652	0.127762817456784	0.6221561631124694	1.7562765738644508	0.07315370772368762	0.6493627723818558	1.7522164066207866	0.10563335214305297	0.8160018055965705	1.750656910279286	0.24624788359327585	0.38880415388103956	0.4368030317652233	0.2576271434023366	0.2392803405846328	0.23404507428357918	0.3230321415225627	0.22963336832859207	0.3536074423190807	0.40192479556751987	0.44224234187443084	0.45863645879864523	0.40763292552859287	0.4551016174446903	0.6664506475429028	0.39719170412719096	0.21095022750425982	0.7634191694152153	0.40568661945916407	0.1005509313218916	0.833366907434734	0.4206595047606638	0.11441414885105171	0.8439723428750916	0.4203686597256501	0.14054137164969946	0.8585665667319453	0.11266045206455652	0.4260372398453258	0.5094245949566552	0.09941740060747666	0.4353874760680806	0.7205369953620085	0.1456111536744139	0.23675392142953416	0.6319992566549254	0.1613665256199201	0.1484489922945686	0.5564801162991604	0.16891022835394512	0.14961074088537551	0.5597709477256273	0.17989036713892043	0.1712415316972492	0.5911023613419863
422	7.962264150943396	0.35399731032641935	0.6087463276241063	0.9384037910516743	0.32831830153975444	0.7096513007449287	1.3529479572565677	0.29031191384698507	0.8065892234235345	1.7407880666496642	0.2867381614381611	0.6215297977090176	1.7688816072914868	0.324208459526561	0.6482506646155496	1.764849953998834	0.27266166223990784	0.8679054216243078	1.7929866673011154	0.15752798597388445	0.5501898868192752	0.9472915338429362	0.1346754974659224	0.6660863991997364	1.3375171741919503	0.10444256261959126	0.7721310356831173	1.7138341582898606	0.12838649788046427	0.622025359065195	1.7562202689223536	0.07317540456452777	0.6493455958927525	1.7522251723030882	0.10560101733255468	0.8159677630474399	1.7505868518796595	0.24619217804390875	0.3889601895732326	0.4367742894595952	0.25762675280743397	0.2394025716586285	0.23416469332854548	0.32300701025047374	0.23002507992618623	0.3545199692488371	0.4021090609556151	0.44222154446230333	0.45961694653404894	0.4104967954360961	0.454570354584716	0.6670693773837277	0.3971508907833218	0.2109803573390129	0.7633792306875622	0.40557299351782666	0.09952342043548398	0.8342961402395801	0.42067779792967275	0.11428113427642067	0.8437289683105053	0.4199037128054974	0.14049727543094542	0.8580193687136466	0.11293911135679002	0.42613227042188007	0.5095184579121677	0.09914176130691613	0.43446942845533226	0.7192793353463115	0.1456309158509329	0.23666721763002924	0.6319999512274306	0.163407707051234	0.1486626469772273	0.55754063316956	0.17045393532354558	0.15045642364203995	0.560774819178146	0.1808438138244574	0.17187057595503982	0.5922524765102588
423	7.981132075471698	0.35397757554611664	0.6090149109990203	0.9380403749450753	0.32816597193028063	0.7090563927759296	1.351588284431469	0.2903052008085092	0.8064692354550291	1.7407676537997123	0.2867906062018105	0.6253173505863125	1.7689778182653293	0.324231623008127	0.6481821005406097	1.7648739735509837	0.2725623696594718	0.870031763697597	1.7938444457751004	0.15740834089077707	0.5506302823546333	0.9469602265983641	0.13461432797700856	0.6661754525716661	1.3375596807131247	0.10429020863513011	0.7713133891444854	1.7122712516120981	0.12823057632230742	0.6220716553392555	1.756240699229458	0.07320675684916393	0.6493766165717343	1.7522716228754973	0.10559070572562725	0.8159303234623889	1.750522108174818	0.24605196579508387	0.38923350887513464	0.4367395193140818	0.25756864328357415	0.23945849595923857	0.23397136671132818	0.32298513478241353	0.2301383253955277	0.35479020998646843	0.40311106523534046	0.44219265913736294	0.45994136026191035	0.41264671297725575	0.4540219856024677	0.6675067790369302	0.3971306874550719	0.21096882697400426	0.7632938638766735	0.40522759138676245	0.09647072667574691	0.8353651761921914	0.42072587405194106	0.11418352736815093	0.84383369370108	0.41974605273726895	0.14059809258262643	0.8583830216993211	0.11279373853546541	0.42606457469101655	0.5095635795963632	0.09915047363549548	0.4342286116207304	0.7180134228587814	0.14568254894698765	0.23666450034363173	0.63205483550969	0.16606105482409805	0.14894268823327622	0.5571264805339035	0.1712991535275868	0.15051438597491085	0.5594147605836411	0.18105365707400872	0.17203034489107774	0.5926652099446027
424	8.0	0.3539495425967022	0.609104648154561	0.9371592225508629	0.32789258954007733	0.7079997469011494	1.3496005560858908	0.2902507335886546	0.8065261770433682	1.7408035347771742	0.2860588904255347	0.6270115840160189	1.7693559651397879	0.32424777089023293	0.6483057101056184	1.764910654550784	0.2724388634608042	0.8686492997554587	1.7946327385465621	0.1572873879158072	0.5500904592745111	0.9460491920523662	0.1345392743705431	0.6662345990666372	1.3375672819314839	0.10407828715511605	0.7701895027413247	1.7101132114653992	0.12798468051496587	0.6221737681936401	1.75627679295155	0.0732315585240952	0.649383741415234	1.7522865301467185	0.10560237157852509	0.8158824828266817	1.7504896111833204	0.24587200997928726	0.3894618992702346	0.4367229257313072	0.2574275818189435	0.23964638412567163	0.2337967631290849	0.3229271058580132	0.23008463159445525	0.35469547273182694	0.40488900490568097	0.44242792258351277	0.459918821144489	0.41335556509604	0.4537619592329744	0.6676594297418236	0.3971545300191057	0.21095911103208836	0.763233600973692	0.4047356435258859	0.09219331492813009	0.8356957929901561	0.4207563030559684	0.11414320951023144	0.8443045426999563	0.41963171581681113	0.14085464037377773	0.8593859561787351	0.11257150654578253	0.42597758258996093	0.5092789761480361	0.09914363008451382	0.4343506017861884	0.7171088623853425	0.14571860623085264	0.23670788370757861	0.6320864610280986	0.1681098221910165	0.1490075466336579	0.5558581434498183	0.17130745024787344	0.15010582899637495	0.5568102110229953	0.1808766215684874	0.171969114062103	0.5926560331381118
425	8.018867924528301	0.3540258177873896	0.6088399479426639	0.9363974677934491	0.32768327138620684	0.7071903524226414	1.3480927170765942	0.2901053336263205	0.8069427694480245	1.74096647315316	0.28551101057876854	0.6248307454621941	1.7694916968555305	0.3242891547488024	0.6485310723903377	1.7649797010926973	0.2723469147822656	0.8657365399962051	1.7940147515383458	0.15721385817398104	0.5492007254119841	0.945346900261576	0.13448577877635223	0.6661973981749532	1.337499474968186	0.10392202958102485	0.7693830630101839	1.708603036126282	0.1278481432820998	0.6223259630493979	1.7563123912034913	0.07324613480410964	0.6493225981505323	1.7522521380658311	0.10563013352605077	0.8158240325182684	1.7504871011616205	0.24617751572110919	0.38857649763617447	0.4367483434722998	0.2573562472682448	0.23972430268339248	0.23372863572319125	0.32285336690739236	0.23000760522742625	0.35461188923423953	0.40687382038247916	0.4436822762507903	0.4598500998103333	0.4132773518142694	0.45377819646306783	0.6676092640428704	0.39714303961116715	0.21104884436749113	0.76351365761284	0.4043566917669412	0.08899301377739859	0.8353253059315836	0.42068575888991006	0.11418513427176738	0.8449717286104926	0.419458440787056	0.14129924724662968	0.8609369660613675	0.1124646032974933	0.42595999000682583	0.5083826101932978	0.09909736561001242	0.43448480529949696	0.7168094618549056	0.1457635349826255	0.23672928817290118	0.6317629032982959	0.16897241310000355	0.1490039517154798	0.5548052473302645	0.17058405098067386	0.14995770911713766	0.5542496946378062	0.1807436245348818	0.17197627404007232	0.5925427862900033
